<svg width="720" height="300" viewBox="0 0 720 300" fill="none" xmlns="http://www.w3.org/2000/svg" role="img" aria-labelledby="title desc">
  <title id="title">Insurance Underwriting Agent</title>
  <desc id="desc">Project card for an explainable Java insurance underwriting agent.</desc>
  <defs>
    <linearGradient id="bg" x1="24" y1="20" x2="696" y2="280" gradientUnits="userSpaceOnUse">
      <stop stop-color="#21150E"/>
      <stop offset="1" stop-color="#342116"/>
    </linearGradient>
  </defs>
  <rect width="720" height="300" rx="20" fill="url(#bg)"/>
  <rect x="1" y="1" width="718" height="298" rx="19" stroke="#FB923C" stroke-opacity="0.42" stroke-width="2"/>
  <circle cx="632" cy="54" r="120" fill="#F59E0B" fill-opacity="0.07"/>
  <text x="40" y="54" fill="#FDBA74" font-family="Inter, -apple-system, BlinkMacSystemFont, 'Segoe UI', sans-serif" font-size="14" font-weight="700" letter-spacing="2.4">SELECTED WORK · AGENT</text>
  <text x="40" y="108" fill="#FFF9F2" font-family="Inter, -apple-system, BlinkMacSystemFont, 'Segoe UI', sans-serif" font-size="34" font-weight="760">Insurance Underwriting</text>
  <text x="40" y="148" fill="#FFF9F2" font-family="Inter, -apple-system, BlinkMacSystemFont, 'Segoe UI', sans-serif" font-size="34" font-weight="760">Agent</text>
  <text x="40" y="181" fill="#D8C0AE" font-family="Inter, -apple-system, BlinkMacSystemFont, 'Segoe UI', sans-serif" font-size="16">Explainable decisions with RAG, rules, MCP tools,</text>
  <text x="40" y="204" fill="#D8C0AE" font-family="Inter, -apple-system, BlinkMacSystemFont, 'Segoe UI', sans-serif" font-size="16">replay, and auditable execution traces.</text>
  <g>
    <rect x="40" y="232" width="74" height="34" rx="17" fill="#43291A"/>
    <text x="61" y="254" fill="#FFE6D0" font-family="Inter, -apple-system, BlinkMacSystemFont, 'Segoe UI', sans-serif" font-size="13" font-weight="700">JAVA</text>
    <rect x="126" y="232" width="112" height="34" rx="17" fill="#43291A"/>
    <text x="147" y="254" fill="#FFE6D0" font-family="Inter, -apple-system, BlinkMacSystemFont, 'Segoe UI', sans-serif" font-size="13" font-weight="700">SPRING AI</text>
    <rect x="250" y="232" width="68" height="34" rx="17" fill="#43291A"/>
    <text x="272" y="254" fill="#FFE6D0" font-family="Inter, -apple-system, BlinkMacSystemFont, 'Segoe UI', sans-serif" font-size="13" font-weight="700">MCP</text>
  </g>
  <g transform="translate(574 178)">
    <path d="M54 2L102 22V52C102 83 82 106 54 118C26 106 6 83 6 52V22L54 2Z" fill="#43291A" stroke="#FB923C" stroke-opacity="0.58" stroke-width="2"/>
    <path d="M31 58L47 74L78 41" stroke="#FDBA74" stroke-width="7" stroke-linecap="round" stroke-linejoin="round"/>
  </g>
</svg>
