<svg width="720" height="420" viewBox="0 0 720 420" fill="none" xmlns="http://www.w3.org/2000/svg" role="img" aria-labelledby="title desc" shape-rendering="crispEdges">
  <title id="title">demoCodex repo card</title>
  <desc id="desc">Pixel-style showcase card for the DemoCodex repository.</desc>
  <rect width="720" height="420" fill="#07111F"/>
  <rect width="720" height="420" fill="#0C1A2B"/>
  <rect x="28" y="28" width="664" height="364" fill="#111F36" stroke="#325A8C" stroke-width="4"/>
  <rect x="44" y="44" width="632" height="332" fill="#16263D"/>
  <rect x="44" y="44" width="632" height="332" fill-opacity="0.18" fill="#8FB4F2"/>
  <rect x="64" y="64" width="140" height="18" fill="#0D1627"/>
  <text x="76" y="78" fill="#8FDBFF" font-family="'Courier New', monospace" font-size="16" font-weight="700" letter-spacing="2">PLAYABLE STACK</text>
  <rect x="64" y="104" width="470" height="82" fill="#0D1627"/>
  <text x="76" y="164" fill="#F8FBFF" font-family="'Arial Black', Impact, sans-serif" font-size="70" font-weight="900">demoCodex</text>
  <rect x="64" y="204" width="244" height="20" fill="#0D1627"/>
  <text x="76" y="220" fill="#FFD27A" font-family="'Courier New', monospace" font-size="18" font-weight="700">43 BROWSER PAGES</text>
  <rect x="64" y="248" width="420" height="18" fill="#0D1627"/>
  <text x="76" y="262" fill="#D7E6FB" font-family="'Courier New', monospace" font-size="15" font-weight="700">PIXEL GAMES + INTERACTIVE EXPERIMENTS</text>
  <rect x="64" y="304" width="142" height="22" fill="#13324A" stroke="#38BDF8" stroke-width="2"/>
  <text x="82" y="319" fill="#DBF4FF" font-family="'Courier New', monospace" font-size="14" font-weight="700">LIVE INDEX</text>
  <rect x="222" y="304" width="158" height="22" fill="#4A3416" stroke="#F59E0B" stroke-width="2"/>
  <text x="240" y="319" fill="#FFE8BF" font-family="'Courier New', monospace" font-size="14" font-weight="700">VANILLA JS</text>
  <rect x="516" y="236" width="128" height="104" fill="#0B1730" stroke="#4D8BFF" stroke-width="4"/>
  <text x="536" y="262" fill="#8FDBFF" font-family="'Courier New', monospace" font-size="14" font-weight="700">LEVEL</text>
  <text x="536" y="306" fill="#FFFFFF" font-family="'Arial Black', Impact, sans-serif" font-size="52" font-weight="900">43</text>
  <text x="536" y="324" fill="#D7E6FB" font-family="'Courier New', monospace" font-size="14" font-weight="700">live units</text>
</svg>
