<svg width="1280" height="420" viewBox="0 0 1280 420" xmlns="http://www.w3.org/2000/svg" role="img" aria-labelledby="title desc">
  <title id="title">hrniu</title>
  <desc id="desc">GitHub profile banner for hrniu, a Java/Spring backend and explainable agent systems engineer.</desc>
  <rect x="610" y="40" width="10" height="10" fill="rgb(140,44,33)" fill-opacity="0.09"/>
  <rect x="620" y="40" width="10" height="10" fill="rgb(142,45,33)" fill-opacity="0.15"/>
  <rect x="630" y="40" width="10" height="10" fill="rgb(142,45,34)" fill-opacity="0.19"/>
  <rect x="640" y="40" width="10" height="10" fill="rgb(86,27,21)" fill-opacity="0.19"/>
  <rect x="650" y="40" width="10" height="10" fill="rgb(86,27,20)" fill-opacity="0.15"/>
  <rect x="660" y="40" width="10" height="10" fill="rgb(85,27,20)" fill-opacity="0.09"/>
  <rect x="580" y="50" width="10" height="10" fill="rgb(85,27,20)" fill-opacity="0.06"/>
  <rect x="590" y="50" width="10" height="10" fill="rgb(87,27,21)" fill-opacity="0.22"/>
  <rect x="600" y="50" width="10" height="10" fill="rgb(89,29,21)" fill-opacity="0.35"/>
  <rect x="610" y="50" width="10" height="10" fill="rgb(90,29,21)" fill-opacity="0.46"/>
  <rect x="620" y="50" width="10" height="10" fill="rgb(91,29,22)" fill-opacity="0.53"/>
  <rect x="630" y="50" width="10" height="10" fill="rgb(91,29,22)" fill-opacity="0.56"/>
  <rect x="640" y="50" width="10" height="10" fill="rgb(151,49,36)" fill-opacity="0.56"/>
  <rect x="650" y="50" width="10" height="10" fill="rgb(150,49,36)" fill-opacity="0.53"/>
  <rect x="660" y="50" width="10" height="10" fill="rgb(148,49,35)" fill-opacity="0.46"/>
  <rect x="670" y="50" width="10" height="10" fill="rgb(146,48,35)" fill-opacity="0.35"/>
  <rect x="680" y="50" width="10" height="10" fill="rgb(143,45,34)" fill-opacity="0.22"/>
  <rect x="690" y="50" width="10" height="10" fill="rgb(140,44,33)" fill-opacity="0.06"/>
  <rect x="570" y="60" width="10" height="10" fill="rgb(142,45,34)" fill-opacity="0.19"/>
  <rect x="580" y="60" width="10" height="10" fill="rgb(89,29,21)" fill-opacity="0.39"/>
  <rect x="590" y="60" width="10" height="10" fill="rgb(151,49,36)" fill-opacity="0.56"/>
  <rect x="600" y="60" width="10" height="10" fill="rgb(154,51,38)" fill-opacity="0.71"/>
  <rect x="610" y="60" width="10" height="10" fill="rgb(156,52,39)" fill-opacity="0.82"/>
  <rect x="620" y="60" width="10" height="10" fill="rgb(159,52,39)" fill-opacity="0.90"/>
  <rect x="630" y="60" width="10" height="10" fill="rgb(160,53,39)" fill-opacity="0.94"/>
  <rect x="640" y="60" width="10" height="10" fill="rgb(97,32,23)" fill-opacity="0.94"/>
  <rect x="650" y="60" width="10" height="10" fill="rgb(96,31,23)" fill-opacity="0.90"/>
  <rect x="660" y="60" width="10" height="10" fill="rgb(95,31,23)" fill-opacity="0.82"/>
  <rect x="670" y="60" width="10" height="10" fill="rgb(93,31,23)" fill-opacity="0.71"/>
  <rect x="680" y="60" width="10" height="10" fill="rgb(91,29,22)" fill-opacity="0.56"/>
  <rect x="690" y="60" width="10" height="10" fill="rgb(146,48,35)" fill-opacity="0.39"/>
  <rect x="700" y="60" width="10" height="10" fill="rgb(86,27,21)" fill-opacity="0.19"/>
  <rect x="560" y="70" width="10" height="10" fill="rgb(144,47,34)" fill-opacity="0.25"/>
  <rect x="570" y="70" width="10" height="10" fill="rgb(91,29,22)" fill-opacity="0.49"/>
  <rect x="580" y="70" width="10" height="10" fill="rgb(93,31,23)" fill-opacity="0.71"/>
  <rect x="590" y="70" width="10" height="10" fill="rgb(96,31,23)" fill-opacity="0.90"/>
  <rect x="600" y="70" width="10" height="10" fill="rgb(98,33,24)" fill-opacity="1.00"/>
  <rect x="610" y="70" width="10" height="10" fill="rgb(165,56,41)" fill-opacity="1.00"/>
  <rect x="620" y="70" width="10" height="10" fill="rgb(102,34,25)" fill-opacity="1.00"/>
  <rect x="630" y="70" width="10" height="10" fill="rgb(102,34,25)" fill-opacity="1.00"/>
  <rect x="640" y="70" width="10" height="10" fill="rgb(169,57,42)" fill-opacity="1.00"/>
  <rect x="650" y="70" width="10" height="10" fill="rgb(168,57,42)" fill-opacity="1.00"/>
  <rect x="660" y="70" width="10" height="10" fill="rgb(100,34,25)" fill-opacity="1.00"/>
  <rect x="670" y="70" width="10" height="10" fill="rgb(162,54,40)" fill-opacity="1.00"/>
  <rect x="680" y="70" width="10" height="10" fill="rgb(159,52,39)" fill-opacity="0.90"/>
  <rect x="690" y="70" width="10" height="10" fill="rgb(154,51,38)" fill-opacity="0.71"/>
  <rect x="700" y="70" width="10" height="10" fill="rgb(150,49,36)" fill-opacity="0.49"/>
  <rect x="710" y="70" width="10" height="10" fill="rgb(87,28,21)" fill-opacity="0.25"/>
  <rect x="550" y="80" width="10" height="10" fill="rgb(87,28,21)" fill-opacity="0.25"/>
  <rect x="560" y="80" width="10" height="10" fill="rgb(91,29,22)" fill-opacity="0.53"/>
  <rect x="570" y="80" width="10" height="10" fill="rgb(156,51,38)" fill-opacity="0.79"/>
  <rect x="580" y="80" width="10" height="10" fill="rgb(161,53,40)" fill-opacity="1.00"/>
  <rect x="590" y="80" width="10" height="10" fill="rgb(101,34,25)" fill-opacity="1.00"/>
  <rect x="600" y="80" width="10" height="10" fill="rgb(170,58,42)" fill-opacity="1.00"/>
  <rect x="610" y="80" width="10" height="10" fill="rgb(105,36,26)" fill-opacity="1.00"/>
  <rect x="620" y="80" width="10" height="10" fill="rgb(175,60,44)" fill-opacity="1.00"/>
  <rect x="630" y="80" width="10" height="10" fill="rgb(176,60,44)" fill-opacity="1.00"/>
  <rect x="640" y="80" width="10" height="10" fill="rgb(107,36,27)" fill-opacity="1.00"/>
  <rect x="650" y="80" width="10" height="10" fill="rgb(106,36,27)" fill-opacity="1.00"/>
  <rect x="660" y="80" width="10" height="10" fill="rgb(173,59,43)" fill-opacity="1.00"/>
  <rect x="670" y="80" width="10" height="10" fill="rgb(103,35,25)" fill-opacity="1.00"/>
  <rect x="680" y="80" width="10" height="10" fill="rgb(166,56,41)" fill-opacity="1.00"/>
  <rect x="690" y="80" width="10" height="10" fill="rgb(97,32,24)" fill-opacity="1.00"/>
  <rect x="700" y="80" width="10" height="10" fill="rgb(95,31,23)" fill-opacity="0.79"/>
  <rect x="710" y="80" width="10" height="10" fill="rgb(91,29,22)" fill-opacity="0.53"/>
  <rect x="720" y="80" width="10" height="10" fill="rgb(144,47,34)" fill-opacity="0.25"/>
  <rect x="540" y="90" width="10" height="10" fill="rgb(86,27,21)" fill-opacity="0.19"/>
  <rect x="550" y="90" width="10" height="10" fill="rgb(150,49,36)" fill-opacity="0.49"/>
  <rect x="560" y="90" width="10" height="10" fill="rgb(95,31,23)" fill-opacity="0.79"/>
  <rect x="570" y="90" width="10" height="10" fill="rgb(162,54,40)" fill-opacity="1.00"/>
  <rect x="580" y="90" width="10" height="10" fill="rgb(102,34,25)" fill-opacity="1.00"/>
  <rect x="590" y="90" width="10" height="10" fill="rgb(173,59,43)" fill-opacity="1.00"/>
  <rect x="600" y="90" width="10" height="10" fill="rgb(108,37,27)" fill-opacity="1.00"/>
  <rect x="610" y="90" width="10" height="10" fill="rgb(182,62,47)" fill-opacity="1.00"/>
  <rect x="620" y="90" width="10" height="10" fill="rgb(112,38,28)" fill-opacity="1.00"/>
  <rect x="630" y="90" width="10" height="10" fill="rgb(112,39,29)" fill-opacity="1.00"/>
  <rect x="640" y="90" width="10" height="10" fill="rgb(185,64,48)" fill-opacity="1.00"/>
  <rect x="650" y="90" width="10" height="10" fill="rgb(184,63,47)" fill-opacity="1.00"/>
  <rect x="660" y="90" width="10" height="10" fill="rgb(110,38,28)" fill-opacity="1.00"/>
  <rect x="670" y="90" width="10" height="10" fill="rgb(178,61,45)" fill-opacity="1.00"/>
  <rect x="680" y="90" width="10" height="10" fill="rgb(105,36,26)" fill-opacity="1.00"/>
  <rect x="690" y="90" width="10" height="10" fill="rgb(169,57,42)" fill-opacity="1.00"/>
  <rect x="700" y="90" width="10" height="10" fill="rgb(162,54,40)" fill-opacity="1.00"/>
  <rect x="710" y="90" width="10" height="10" fill="rgb(156,51,38)" fill-opacity="0.79"/>
  <rect x="720" y="90" width="10" height="10" fill="rgb(91,29,22)" fill-opacity="0.49"/>
  <rect x="730" y="90" width="10" height="10" fill="rgb(142,45,34)" fill-opacity="0.19"/>
  <rect x="530" y="100" width="10" height="10" fill="rgb(140,44,33)" fill-opacity="0.06"/>
  <rect x="540" y="100" width="10" height="10" fill="rgb(146,48,35)" fill-opacity="0.39"/>
  <rect x="550" y="100" width="10" height="10" fill="rgb(154,51,38)" fill-opacity="0.71"/>
  <rect x="560" y="100" width="10" height="10" fill="rgb(97,32,24)" fill-opacity="1.00"/>
  <rect x="570" y="100" width="10" height="10" fill="rgb(169,57,42)" fill-opacity="1.00"/>
  <rect x="580" y="100" width="10" height="10" fill="rgb(174,60,44)" fill-opacity="1.00"/>
  <rect x="590" y="100" width="10" height="10" fill="rgb(181,62,45)" fill-opacity="1.00"/>
  <rect x="600" y="100" width="10" height="10" fill="rgb(112,39,29)" fill-opacity="1.00"/>
  <rect x="610" y="100" width="10" height="10" fill="rgb(190,67,49)" fill-opacity="1.00"/>
  <rect x="620" y="100" width="10" height="10" fill="rgb(117,41,30)" fill-opacity="1.00"/>
  <rect x="630" y="100" width="10" height="10" fill="rgb(196,69,50)" fill-opacity="1.00"/>
  <rect x="640" y="100" width="10" height="10" fill="rgb(119,42,30)" fill-opacity="1.00"/>
  <rect x="650" y="100" width="10" height="10" fill="rgb(193,68,50)" fill-opacity="1.00"/>
  <rect x="660" y="100" width="10" height="10" fill="rgb(115,40,29)" fill-opacity="1.00"/>
  <rect x="670" y="100" width="10" height="10" fill="rgb(185,64,48)" fill-opacity="1.00"/>
  <rect x="680" y="100" width="10" height="10" fill="rgb(110,38,27)" fill-opacity="1.00"/>
  <rect x="690" y="100" width="10" height="10" fill="rgb(174,60,44)" fill-opacity="1.00"/>
  <rect x="700" y="100" width="10" height="10" fill="rgb(102,34,25)" fill-opacity="1.00"/>
  <rect x="710" y="100" width="10" height="10" fill="rgb(161,53,40)" fill-opacity="1.00"/>
  <rect x="720" y="100" width="10" height="10" fill="rgb(93,31,23)" fill-opacity="0.71"/>
  <rect x="730" y="100" width="10" height="10" fill="rgb(89,29,21)" fill-opacity="0.39"/>
  <rect x="740" y="100" width="10" height="10" fill="rgb(85,27,20)" fill-opacity="0.06"/>
  <rect x="530" y="110" width="10" height="10" fill="rgb(143,45,34)" fill-opacity="0.22"/>
  <rect x="540" y="110" width="10" height="10" fill="rgb(91,29,22)" fill-opacity="0.56"/>
  <rect x="550" y="110" width="10" height="10" fill="rgb(159,52,39)" fill-opacity="0.90"/>
  <rect x="560" y="110" width="10" height="10" fill="rgb(166,56,41)" fill-opacity="1.00"/>
  <rect x="570" y="110" width="10" height="10" fill="rgb(105,36,26)" fill-opacity="1.00"/>
  <rect x="580" y="110" width="10" height="10" fill="rgb(110,38,27)" fill-opacity="1.00"/>
  <rect x="590" y="110" width="10" height="10" fill="rgb(114,39,29)" fill-opacity="1.00"/>
  <rect x="600" y="110" width="10" height="10" fill="rgb(193,68,50)" fill-opacity="1.00"/>
  <rect x="610" y="110" width="10" height="10" fill="rgb(121,42,31)" fill-opacity="1.00"/>
  <rect x="620" y="110" width="10" height="10" fill="rgb(203,72,52)" fill-opacity="1.00"/>
  <rect x="630" y="110" width="10" height="10" fill="rgb(125,44,32)" fill-opacity="1.00"/>
  <rect x="640" y="110" width="10" height="10" fill="rgb(206,73,53)" fill-opacity="1.00"/>
  <rect x="650" y="110" width="10" height="10" fill="rgb(123,44,31)" fill-opacity="1.00"/>
  <rect x="660" y="110" width="10" height="10" fill="rgb(199,70,51)" fill-opacity="1.00"/>
  <rect x="670" y="110" width="10" height="10" fill="rgb(117,41,30)" fill-opacity="1.00"/>
  <rect x="680" y="110" width="10" height="10" fill="rgb(114,39,29)" fill-opacity="1.00"/>
  <rect x="690" y="110" width="10" height="10" fill="rgb(181,62,45)" fill-opacity="1.00"/>
  <rect x="700" y="110" width="10" height="10" fill="rgb(173,59,43)" fill-opacity="1.00"/>
  <rect x="710" y="110" width="10" height="10" fill="rgb(101,34,25)" fill-opacity="1.00"/>
  <rect x="720" y="110" width="10" height="10" fill="rgb(96,31,23)" fill-opacity="0.90"/>
  <rect x="730" y="110" width="10" height="10" fill="rgb(151,49,36)" fill-opacity="0.56"/>
  <rect x="740" y="110" width="10" height="10" fill="rgb(87,27,21)" fill-opacity="0.22"/>
  <rect x="530" y="120" width="10" height="10" fill="rgb(146,48,35)" fill-opacity="0.35"/>
  <rect x="540" y="120" width="10" height="10" fill="rgb(93,31,23)" fill-opacity="0.71"/>
  <rect x="550" y="120" width="10" height="10" fill="rgb(162,54,40)" fill-opacity="1.00"/>
  <rect x="560" y="120" width="10" height="10" fill="rgb(103,35,25)" fill-opacity="1.00"/>
  <rect x="570" y="120" width="10" height="10" fill="rgb(178,61,45)" fill-opacity="1.00"/>
  <rect x="580" y="120" width="10" height="10" fill="rgb(185,64,48)" fill-opacity="1.00"/>
  <rect x="590" y="120" width="10" height="10" fill="rgb(117,41,30)" fill-opacity="1.00"/>
  <rect x="600" y="120" width="10" height="10" fill="rgb(122,43,31)" fill-opacity="1.00"/>
  <rect x="610" y="120" width="10" height="10" fill="rgb(126,45,32)" fill-opacity="1.00"/>
  <rect x="620" y="120" width="10" height="10" fill="rgb(129,46,33)" fill-opacity="1.00"/>
  <rect x="630" y="120" width="10" height="10" fill="rgb(215,78,56)" fill-opacity="1.00"/>
  <rect x="640" y="120" width="10" height="10" fill="rgb(130,47,34)" fill-opacity="1.00"/>
  <rect x="650" y="120" width="10" height="10" fill="rgb(212,77,54)" fill-opacity="1.00"/>
  <rect x="660" y="120" width="10" height="10" fill="rgb(208,75,53)" fill-opacity="1.00"/>
  <rect x="670" y="120" width="10" height="10" fill="rgb(122,43,31)" fill-opacity="1.00"/>
  <rect x="680" y="120" width="10" height="10" fill="rgb(193,68,50)" fill-opacity="1.00"/>
  <rect x="690" y="120" width="10" height="10" fill="rgb(112,39,29)" fill-opacity="1.00"/>
  <rect x="700" y="120" width="10" height="10" fill="rgb(108,37,27)" fill-opacity="1.00"/>
  <rect x="710" y="120" width="10" height="10" fill="rgb(170,58,42)" fill-opacity="1.00"/>
  <rect x="720" y="120" width="10" height="10" fill="rgb(98,33,24)" fill-opacity="1.00"/>
  <rect x="730" y="120" width="10" height="10" fill="rgb(154,51,38)" fill-opacity="0.71"/>
  <rect x="740" y="120" width="10" height="10" fill="rgb(89,29,21)" fill-opacity="0.35"/>
  <rect x="520" y="130" width="10" height="10" fill="rgb(85,27,20)" fill-opacity="0.09"/>
  <rect x="530" y="130" width="10" height="10" fill="rgb(148,49,35)" fill-opacity="0.46"/>
  <rect x="540" y="130" width="10" height="10" fill="rgb(95,31,23)" fill-opacity="0.82"/>
  <rect x="550" y="130" width="10" height="10" fill="rgb(100,34,25)" fill-opacity="1.00"/>
  <rect x="560" y="130" width="10" height="10" fill="rgb(173,59,43)" fill-opacity="1.00"/>
  <rect x="570" y="130" width="10" height="10" fill="rgb(110,38,28)" fill-opacity="1.00"/>
  <rect x="580" y="130" width="10" height="10" fill="rgb(115,40,29)" fill-opacity="1.00"/>
  <rect x="590" y="130" width="10" height="10" fill="rgb(199,70,51)" fill-opacity="1.00"/>
  <rect x="600" y="130" width="10" height="10" fill="rgb(208,75,53)" fill-opacity="1.00"/>
  <rect x="610" y="130" width="10" height="10" fill="rgb(215,78,56)" fill-opacity="1.00"/>
  <rect x="620" y="130" width="10" height="10" fill="rgb(134,49,34)" fill-opacity="1.00"/>
  <rect x="630" y="130" width="10" height="10" fill="rgb(136,50,35)" fill-opacity="1.00"/>
  <rect x="640" y="130" width="10" height="10" fill="rgb(225,82,58)" fill-opacity="1.00"/>
  <rect x="650" y="130" width="10" height="10" fill="rgb(221,81,57)" fill-opacity="1.00"/>
  <rect x="660" y="130" width="10" height="10" fill="rgb(215,78,56)" fill-opacity="1.00"/>
  <rect x="670" y="130" width="10" height="10" fill="rgb(126,45,32)" fill-opacity="1.00"/>
  <rect x="680" y="130" width="10" height="10" fill="rgb(121,42,31)" fill-opacity="1.00"/>
  <rect x="690" y="130" width="10" height="10" fill="rgb(190,67,49)" fill-opacity="1.00"/>
  <rect x="700" y="130" width="10" height="10" fill="rgb(182,62,47)" fill-opacity="1.00"/>
  <rect x="710" y="130" width="10" height="10" fill="rgb(105,36,26)" fill-opacity="1.00"/>
  <rect x="720" y="130" width="10" height="10" fill="rgb(165,56,41)" fill-opacity="1.00"/>
  <rect x="730" y="130" width="10" height="10" fill="rgb(156,52,39)" fill-opacity="0.82"/>
  <rect x="740" y="130" width="10" height="10" fill="rgb(90,29,21)" fill-opacity="0.46"/>
  <rect x="750" y="130" width="10" height="10" fill="rgb(140,44,33)" fill-opacity="0.09"/>
  <rect x="520" y="140" width="10" height="10" fill="rgb(86,27,20)" fill-opacity="0.15"/>
  <rect x="530" y="140" width="10" height="10" fill="rgb(150,49,36)" fill-opacity="0.53"/>
  <rect x="540" y="140" width="10" height="10" fill="rgb(96,31,23)" fill-opacity="0.90"/>
  <rect x="550" y="140" width="10" height="10" fill="rgb(168,57,42)" fill-opacity="1.00"/>
  <rect x="560" y="140" width="10" height="10" fill="rgb(106,36,27)" fill-opacity="1.00"/>
  <rect x="570" y="140" width="10" height="10" fill="rgb(184,63,47)" fill-opacity="1.00"/>
  <rect x="580" y="140" width="10" height="10" fill="rgb(193,68,50)" fill-opacity="1.00"/>
  <rect x="590" y="140" width="10" height="10" fill="rgb(123,44,31)" fill-opacity="1.00"/>
  <rect x="600" y="140" width="10" height="10" fill="rgb(212,77,54)" fill-opacity="1.00"/>
  <rect x="610" y="140" width="10" height="10" fill="rgb(221,81,57)" fill-opacity="1.00"/>
  <rect x="620" y="140" width="10" height="10" fill="rgb(139,51,36)" fill-opacity="1.00"/>
  <rect x="630" y="140" width="10" height="10" fill="rgb(142,53,37)" fill-opacity="1.00"/>
  <rect x="640" y="140" width="10" height="10" fill="rgb(235,87,61)" fill-opacity="1.00"/>
  <rect x="650" y="140" width="10" height="10" fill="rgb(139,51,36)" fill-opacity="1.00"/>
  <rect x="660" y="140" width="10" height="10" fill="rgb(134,49,34)" fill-opacity="1.00"/>
  <rect x="670" y="140" width="10" height="10" fill="rgb(129,46,33)" fill-opacity="1.00"/>
  <rect x="680" y="140" width="10" height="10" fill="rgb(203,72,52)" fill-opacity="1.00"/>
  <rect x="690" y="140" width="10" height="10" fill="rgb(117,41,30)" fill-opacity="1.00"/>
  <rect x="700" y="140" width="10" height="10" fill="rgb(112,38,28)" fill-opacity="1.00"/>
  <rect x="710" y="140" width="10" height="10" fill="rgb(175,60,44)" fill-opacity="1.00"/>
  <rect x="720" y="140" width="10" height="10" fill="rgb(102,34,25)" fill-opacity="1.00"/>
  <rect x="730" y="140" width="10" height="10" fill="rgb(159,52,39)" fill-opacity="0.90"/>
  <rect x="740" y="140" width="10" height="10" fill="rgb(91,29,22)" fill-opacity="0.53"/>
  <rect x="750" y="140" width="10" height="10" fill="rgb(142,45,33)" fill-opacity="0.15"/>
  <rect x="520" y="150" width="10" height="10" fill="rgb(86,27,21)" fill-opacity="0.19"/>
  <rect x="530" y="150" width="10" height="10" fill="rgb(151,49,36)" fill-opacity="0.56"/>
  <rect x="540" y="150" width="10" height="10" fill="rgb(97,32,23)" fill-opacity="0.94"/>
  <rect x="550" y="150" width="10" height="10" fill="rgb(169,57,42)" fill-opacity="1.00"/>
  <rect x="560" y="150" width="10" height="10" fill="rgb(107,36,27)" fill-opacity="1.00"/>
  <rect x="570" y="150" width="10" height="10" fill="rgb(185,64,48)" fill-opacity="1.00"/>
  <rect x="580" y="150" width="10" height="10" fill="rgb(119,42,30)" fill-opacity="1.00"/>
  <rect x="590" y="150" width="10" height="10" fill="rgb(206,73,53)" fill-opacity="1.00"/>
  <rect x="600" y="150" width="10" height="10" fill="rgb(130,47,34)" fill-opacity="1.00"/>
  <rect x="610" y="150" width="10" height="10" fill="rgb(225,82,58)" fill-opacity="1.00"/>
  <rect x="620" y="150" width="10" height="10" fill="rgb(235,87,61)" fill-opacity="1.00"/>
  <rect x="630" y="150" width="10" height="10" fill="rgb(147,55,38)" fill-opacity="1.00"/>
  <rect x="640" y="150" width="10" height="10" fill="rgb(147,55,38)" fill-opacity="1.00"/>
  <rect x="650" y="150" width="10" height="10" fill="rgb(142,53,37)" fill-opacity="1.00"/>
  <rect x="660" y="150" width="10" height="10" fill="rgb(136,50,35)" fill-opacity="1.00"/>
  <rect x="670" y="150" width="10" height="10" fill="rgb(215,78,56)" fill-opacity="1.00"/>
  <rect x="680" y="150" width="10" height="10" fill="rgb(125,44,32)" fill-opacity="1.00"/>
  <rect x="690" y="150" width="10" height="10" fill="rgb(196,69,50)" fill-opacity="1.00"/>
  <rect x="700" y="150" width="10" height="10" fill="rgb(112,39,29)" fill-opacity="1.00"/>
  <rect x="710" y="150" width="10" height="10" fill="rgb(176,60,44)" fill-opacity="1.00"/>
  <rect x="720" y="150" width="10" height="10" fill="rgb(102,34,25)" fill-opacity="1.00"/>
  <rect x="730" y="150" width="10" height="10" fill="rgb(160,53,39)" fill-opacity="0.94"/>
  <rect x="740" y="150" width="10" height="10" fill="rgb(91,29,22)" fill-opacity="0.56"/>
  <rect x="750" y="150" width="10" height="10" fill="rgb(142,45,34)" fill-opacity="0.19"/>
  <rect x="520" y="160" width="10" height="10" fill="rgb(142,45,34)" fill-opacity="0.19"/>
  <rect x="530" y="160" width="10" height="10" fill="rgb(91,29,22)" fill-opacity="0.56"/>
  <rect x="540" y="160" width="10" height="10" fill="rgb(160,53,39)" fill-opacity="0.94"/>
  <rect x="550" y="160" width="10" height="10" fill="rgb(102,34,25)" fill-opacity="1.00"/>
  <rect x="560" y="160" width="10" height="10" fill="rgb(176,60,44)" fill-opacity="1.00"/>
  <rect x="570" y="160" width="10" height="10" fill="rgb(112,39,29)" fill-opacity="1.00"/>
  <rect x="580" y="160" width="10" height="10" fill="rgb(196,69,50)" fill-opacity="1.00"/>
  <rect x="590" y="160" width="10" height="10" fill="rgb(125,44,32)" fill-opacity="1.00"/>
  <rect x="600" y="160" width="10" height="10" fill="rgb(215,78,56)" fill-opacity="1.00"/>
  <rect x="610" y="160" width="10" height="10" fill="rgb(136,50,35)" fill-opacity="1.00"/>
  <rect x="620" y="160" width="10" height="10" fill="rgb(142,53,37)" fill-opacity="1.00"/>
  <rect x="630" y="160" width="10" height="10" fill="rgb(147,55,38)" fill-opacity="1.00"/>
  <rect x="640" y="160" width="10" height="10" fill="rgb(147,55,38)" fill-opacity="1.00"/>
  <rect x="650" y="160" width="10" height="10" fill="rgb(235,87,61)" fill-opacity="1.00"/>
  <rect x="660" y="160" width="10" height="10" fill="rgb(225,82,58)" fill-opacity="1.00"/>
  <rect x="670" y="160" width="10" height="10" fill="rgb(130,47,34)" fill-opacity="1.00"/>
  <rect x="680" y="160" width="10" height="10" fill="rgb(206,73,53)" fill-opacity="1.00"/>
  <rect x="690" y="160" width="10" height="10" fill="rgb(119,42,30)" fill-opacity="1.00"/>
  <rect x="700" y="160" width="10" height="10" fill="rgb(185,64,48)" fill-opacity="1.00"/>
  <rect x="710" y="160" width="10" height="10" fill="rgb(107,36,27)" fill-opacity="1.00"/>
  <rect x="720" y="160" width="10" height="10" fill="rgb(169,57,42)" fill-opacity="1.00"/>
  <rect x="730" y="160" width="10" height="10" fill="rgb(97,32,23)" fill-opacity="0.94"/>
  <rect x="740" y="160" width="10" height="10" fill="rgb(151,49,36)" fill-opacity="0.56"/>
  <rect x="750" y="160" width="10" height="10" fill="rgb(86,27,21)" fill-opacity="0.19"/>
  <rect x="520" y="170" width="10" height="10" fill="rgb(142,45,33)" fill-opacity="0.15"/>
  <rect x="530" y="170" width="10" height="10" fill="rgb(91,29,22)" fill-opacity="0.53"/>
  <rect x="540" y="170" width="10" height="10" fill="rgb(159,52,39)" fill-opacity="0.90"/>
  <rect x="550" y="170" width="10" height="10" fill="rgb(102,34,25)" fill-opacity="1.00"/>
  <rect x="560" y="170" width="10" height="10" fill="rgb(175,60,44)" fill-opacity="1.00"/>
  <rect x="570" y="170" width="10" height="10" fill="rgb(112,38,28)" fill-opacity="1.00"/>
  <rect x="580" y="170" width="10" height="10" fill="rgb(117,41,30)" fill-opacity="1.00"/>
  <rect x="590" y="170" width="10" height="10" fill="rgb(203,72,52)" fill-opacity="1.00"/>
  <rect x="600" y="170" width="10" height="10" fill="rgb(129,46,33)" fill-opacity="1.00"/>
  <rect x="610" y="170" width="10" height="10" fill="rgb(134,49,34)" fill-opacity="1.00"/>
  <rect x="620" y="170" width="10" height="10" fill="rgb(139,51,36)" fill-opacity="1.00"/>
  <rect x="630" y="170" width="10" height="10" fill="rgb(235,87,61)" fill-opacity="1.00"/>
  <rect x="640" y="170" width="10" height="10" fill="rgb(142,53,37)" fill-opacity="1.00"/>
  <rect x="650" y="170" width="10" height="10" fill="rgb(139,51,36)" fill-opacity="1.00"/>
  <rect x="660" y="170" width="10" height="10" fill="rgb(221,81,57)" fill-opacity="1.00"/>
  <rect x="670" y="170" width="10" height="10" fill="rgb(212,77,54)" fill-opacity="1.00"/>
  <rect x="680" y="170" width="10" height="10" fill="rgb(123,44,31)" fill-opacity="1.00"/>
  <rect x="690" y="170" width="10" height="10" fill="rgb(193,68,50)" fill-opacity="1.00"/>
  <rect x="700" y="170" width="10" height="10" fill="rgb(184,63,47)" fill-opacity="1.00"/>
  <rect x="710" y="170" width="10" height="10" fill="rgb(106,36,27)" fill-opacity="1.00"/>
  <rect x="720" y="170" width="10" height="10" fill="rgb(168,57,42)" fill-opacity="1.00"/>
  <rect x="730" y="170" width="10" height="10" fill="rgb(96,31,23)" fill-opacity="0.90"/>
  <rect x="740" y="170" width="10" height="10" fill="rgb(150,49,36)" fill-opacity="0.53"/>
  <rect x="750" y="170" width="10" height="10" fill="rgb(86,27,20)" fill-opacity="0.15"/>
  <rect x="520" y="180" width="10" height="10" fill="rgb(140,44,33)" fill-opacity="0.09"/>
  <rect x="530" y="180" width="10" height="10" fill="rgb(90,29,21)" fill-opacity="0.46"/>
  <rect x="540" y="180" width="10" height="10" fill="rgb(156,52,39)" fill-opacity="0.82"/>
  <rect x="550" y="180" width="10" height="10" fill="rgb(165,56,41)" fill-opacity="1.00"/>
  <rect x="560" y="180" width="10" height="10" fill="rgb(105,36,26)" fill-opacity="1.00"/>
  <rect x="570" y="180" width="10" height="10" fill="rgb(182,62,47)" fill-opacity="1.00"/>
  <rect x="580" y="180" width="10" height="10" fill="rgb(190,67,49)" fill-opacity="1.00"/>
  <rect x="590" y="180" width="10" height="10" fill="rgb(121,42,31)" fill-opacity="1.00"/>
  <rect x="600" y="180" width="10" height="10" fill="rgb(126,45,32)" fill-opacity="1.00"/>
  <rect x="610" y="180" width="10" height="10" fill="rgb(215,78,56)" fill-opacity="1.00"/>
  <rect x="620" y="180" width="10" height="10" fill="rgb(221,81,57)" fill-opacity="1.00"/>
  <rect x="630" y="180" width="10" height="10" fill="rgb(225,82,58)" fill-opacity="1.00"/>
  <rect x="640" y="180" width="10" height="10" fill="rgb(136,50,35)" fill-opacity="1.00"/>
  <rect x="650" y="180" width="10" height="10" fill="rgb(134,49,34)" fill-opacity="1.00"/>
  <rect x="660" y="180" width="10" height="10" fill="rgb(215,78,56)" fill-opacity="1.00"/>
  <rect x="670" y="180" width="10" height="10" fill="rgb(208,75,53)" fill-opacity="1.00"/>
  <rect x="680" y="180" width="10" height="10" fill="rgb(199,70,51)" fill-opacity="1.00"/>
  <rect x="690" y="180" width="10" height="10" fill="rgb(115,40,29)" fill-opacity="1.00"/>
  <rect x="700" y="180" width="10" height="10" fill="rgb(110,38,28)" fill-opacity="1.00"/>
  <rect x="710" y="180" width="10" height="10" fill="rgb(173,59,43)" fill-opacity="1.00"/>
  <rect x="720" y="180" width="10" height="10" fill="rgb(100,34,25)" fill-opacity="1.00"/>
  <rect x="730" y="180" width="10" height="10" fill="rgb(95,31,23)" fill-opacity="0.82"/>
  <rect x="740" y="180" width="10" height="10" fill="rgb(148,49,35)" fill-opacity="0.46"/>
  <rect x="750" y="180" width="10" height="10" fill="rgb(85,27,20)" fill-opacity="0.09"/>
  <rect x="530" y="190" width="10" height="10" fill="rgb(89,29,21)" fill-opacity="0.35"/>
  <rect x="540" y="190" width="10" height="10" fill="rgb(154,51,38)" fill-opacity="0.71"/>
  <rect x="550" y="190" width="10" height="10" fill="rgb(98,33,24)" fill-opacity="1.00"/>
  <rect x="560" y="190" width="10" height="10" fill="rgb(170,58,42)" fill-opacity="1.00"/>
  <rect x="570" y="190" width="10" height="10" fill="rgb(108,37,27)" fill-opacity="1.00"/>
  <rect x="580" y="190" width="10" height="10" fill="rgb(112,39,29)" fill-opacity="1.00"/>
  <rect x="590" y="190" width="10" height="10" fill="rgb(193,68,50)" fill-opacity="1.00"/>
  <rect x="600" y="190" width="10" height="10" fill="rgb(122,43,31)" fill-opacity="1.00"/>
  <rect x="610" y="190" width="10" height="10" fill="rgb(208,75,53)" fill-opacity="1.00"/>
  <rect x="620" y="190" width="10" height="10" fill="rgb(212,77,54)" fill-opacity="1.00"/>
  <rect x="630" y="190" width="10" height="10" fill="rgb(130,47,34)" fill-opacity="1.00"/>
  <rect x="640" y="190" width="10" height="10" fill="rgb(215,78,56)" fill-opacity="1.00"/>
  <rect x="650" y="190" width="10" height="10" fill="rgb(129,46,33)" fill-opacity="1.00"/>
  <rect x="660" y="190" width="10" height="10" fill="rgb(126,45,32)" fill-opacity="1.00"/>
  <rect x="670" y="190" width="10" height="10" fill="rgb(122,43,31)" fill-opacity="1.00"/>
  <rect x="680" y="190" width="10" height="10" fill="rgb(117,41,30)" fill-opacity="1.00"/>
  <rect x="690" y="190" width="10" height="10" fill="rgb(185,64,48)" fill-opacity="1.00"/>
  <rect x="700" y="190" width="10" height="10" fill="rgb(178,61,45)" fill-opacity="1.00"/>
  <rect x="710" y="190" width="10" height="10" fill="rgb(103,35,25)" fill-opacity="1.00"/>
  <rect x="720" y="190" width="10" height="10" fill="rgb(162,54,40)" fill-opacity="1.00"/>
  <rect x="730" y="190" width="10" height="10" fill="rgb(93,31,23)" fill-opacity="0.71"/>
  <rect x="740" y="190" width="10" height="10" fill="rgb(146,48,35)" fill-opacity="0.35"/>
  <rect x="530" y="200" width="10" height="10" fill="rgb(87,27,21)" fill-opacity="0.22"/>
  <rect x="540" y="200" width="10" height="10" fill="rgb(151,49,36)" fill-opacity="0.56"/>
  <rect x="550" y="200" width="10" height="10" fill="rgb(96,31,23)" fill-opacity="0.90"/>
  <rect x="560" y="200" width="10" height="10" fill="rgb(101,34,25)" fill-opacity="1.00"/>
  <rect x="570" y="200" width="10" height="10" fill="rgb(173,59,43)" fill-opacity="1.00"/>
  <rect x="580" y="200" width="10" height="10" fill="rgb(181,62,45)" fill-opacity="1.00"/>
  <rect x="590" y="200" width="10" height="10" fill="rgb(114,39,29)" fill-opacity="1.00"/>
  <rect x="600" y="200" width="10" height="10" fill="rgb(117,41,30)" fill-opacity="1.00"/>
  <rect x="610" y="200" width="10" height="10" fill="rgb(199,70,51)" fill-opacity="1.00"/>
  <rect x="620" y="200" width="10" height="10" fill="rgb(123,44,31)" fill-opacity="1.00"/>
  <rect x="630" y="200" width="10" height="10" fill="rgb(206,73,53)" fill-opacity="1.00"/>
  <rect x="640" y="200" width="10" height="10" fill="rgb(125,44,32)" fill-opacity="1.00"/>
  <rect x="650" y="200" width="10" height="10" fill="rgb(203,72,52)" fill-opacity="1.00"/>
  <rect x="660" y="200" width="10" height="10" fill="rgb(121,42,31)" fill-opacity="1.00"/>
  <rect x="670" y="200" width="10" height="10" fill="rgb(193,68,50)" fill-opacity="1.00"/>
  <rect x="680" y="200" width="10" height="10" fill="rgb(114,39,29)" fill-opacity="1.00"/>
  <rect x="690" y="200" width="10" height="10" fill="rgb(110,38,27)" fill-opacity="1.00"/>
  <rect x="700" y="200" width="10" height="10" fill="rgb(105,36,26)" fill-opacity="1.00"/>
  <rect x="710" y="200" width="10" height="10" fill="rgb(166,56,41)" fill-opacity="1.00"/>
  <rect x="720" y="200" width="10" height="10" fill="rgb(159,52,39)" fill-opacity="0.90"/>
  <rect x="730" y="200" width="10" height="10" fill="rgb(91,29,22)" fill-opacity="0.56"/>
  <rect x="740" y="200" width="10" height="10" fill="rgb(143,45,34)" fill-opacity="0.22"/>
  <rect x="530" y="210" width="10" height="10" fill="rgb(85,27,20)" fill-opacity="0.06"/>
  <rect x="540" y="210" width="10" height="10" fill="rgb(89,29,21)" fill-opacity="0.39"/>
  <rect x="550" y="210" width="10" height="10" fill="rgb(93,31,23)" fill-opacity="0.71"/>
  <rect x="560" y="210" width="10" height="10" fill="rgb(161,53,40)" fill-opacity="1.00"/>
  <rect x="570" y="210" width="10" height="10" fill="rgb(102,34,25)" fill-opacity="1.00"/>
  <rect x="580" y="210" width="10" height="10" fill="rgb(174,60,44)" fill-opacity="1.00"/>
  <rect x="590" y="210" width="10" height="10" fill="rgb(110,38,27)" fill-opacity="1.00"/>
  <rect x="600" y="210" width="10" height="10" fill="rgb(185,64,48)" fill-opacity="1.00"/>
  <rect x="610" y="210" width="10" height="10" fill="rgb(115,40,29)" fill-opacity="1.00"/>
  <rect x="620" y="210" width="10" height="10" fill="rgb(193,68,50)" fill-opacity="1.00"/>
  <rect x="630" y="210" width="10" height="10" fill="rgb(119,42,30)" fill-opacity="1.00"/>
  <rect x="640" y="210" width="10" height="10" fill="rgb(196,69,50)" fill-opacity="1.00"/>
  <rect x="650" y="210" width="10" height="10" fill="rgb(117,41,30)" fill-opacity="1.00"/>
  <rect x="660" y="210" width="10" height="10" fill="rgb(190,67,49)" fill-opacity="1.00"/>
  <rect x="670" y="210" width="10" height="10" fill="rgb(112,39,29)" fill-opacity="1.00"/>
  <rect x="680" y="210" width="10" height="10" fill="rgb(181,62,45)" fill-opacity="1.00"/>
  <rect x="690" y="210" width="10" height="10" fill="rgb(174,60,44)" fill-opacity="1.00"/>
  <rect x="700" y="210" width="10" height="10" fill="rgb(169,57,42)" fill-opacity="1.00"/>
  <rect x="710" y="210" width="10" height="10" fill="rgb(97,32,24)" fill-opacity="1.00"/>
  <rect x="720" y="210" width="10" height="10" fill="rgb(154,51,38)" fill-opacity="0.71"/>
  <rect x="730" y="210" width="10" height="10" fill="rgb(146,48,35)" fill-opacity="0.39"/>
  <rect x="740" y="210" width="10" height="10" fill="rgb(140,44,33)" fill-opacity="0.06"/>
  <rect x="540" y="220" width="10" height="10" fill="rgb(142,45,34)" fill-opacity="0.19"/>
  <rect x="550" y="220" width="10" height="10" fill="rgb(91,29,22)" fill-opacity="0.49"/>
  <rect x="560" y="220" width="10" height="10" fill="rgb(156,51,38)" fill-opacity="0.79"/>
  <rect x="570" y="220" width="10" height="10" fill="rgb(162,54,40)" fill-opacity="1.00"/>
  <rect x="580" y="220" width="10" height="10" fill="rgb(169,57,42)" fill-opacity="1.00"/>
  <rect x="590" y="220" width="10" height="10" fill="rgb(105,36,26)" fill-opacity="1.00"/>
  <rect x="600" y="220" width="10" height="10" fill="rgb(178,61,45)" fill-opacity="1.00"/>
  <rect x="610" y="220" width="10" height="10" fill="rgb(110,38,28)" fill-opacity="1.00"/>
  <rect x="620" y="220" width="10" height="10" fill="rgb(184,63,47)" fill-opacity="1.00"/>
  <rect x="630" y="220" width="10" height="10" fill="rgb(185,64,48)" fill-opacity="1.00"/>
  <rect x="640" y="220" width="10" height="10" fill="rgb(112,39,29)" fill-opacity="1.00"/>
  <rect x="650" y="220" width="10" height="10" fill="rgb(112,38,28)" fill-opacity="1.00"/>
  <rect x="660" y="220" width="10" height="10" fill="rgb(182,62,47)" fill-opacity="1.00"/>
  <rect x="670" y="220" width="10" height="10" fill="rgb(108,37,27)" fill-opacity="1.00"/>
  <rect x="680" y="220" width="10" height="10" fill="rgb(173,59,43)" fill-opacity="1.00"/>
  <rect x="690" y="220" width="10" height="10" fill="rgb(102,34,25)" fill-opacity="1.00"/>
  <rect x="700" y="220" width="10" height="10" fill="rgb(162,54,40)" fill-opacity="1.00"/>
  <rect x="710" y="220" width="10" height="10" fill="rgb(95,31,23)" fill-opacity="0.79"/>
  <rect x="720" y="220" width="10" height="10" fill="rgb(150,49,36)" fill-opacity="0.49"/>
  <rect x="730" y="220" width="10" height="10" fill="rgb(86,27,21)" fill-opacity="0.19"/>
  <rect x="550" y="230" width="10" height="10" fill="rgb(144,47,34)" fill-opacity="0.25"/>
  <rect x="560" y="230" width="10" height="10" fill="rgb(91,29,22)" fill-opacity="0.53"/>
  <rect x="570" y="230" width="10" height="10" fill="rgb(95,31,23)" fill-opacity="0.79"/>
  <rect x="580" y="230" width="10" height="10" fill="rgb(97,32,24)" fill-opacity="1.00"/>
  <rect x="590" y="230" width="10" height="10" fill="rgb(166,56,41)" fill-opacity="1.00"/>
  <rect x="600" y="230" width="10" height="10" fill="rgb(103,35,25)" fill-opacity="1.00"/>
  <rect x="610" y="230" width="10" height="10" fill="rgb(173,59,43)" fill-opacity="1.00"/>
  <rect x="620" y="230" width="10" height="10" fill="rgb(106,36,27)" fill-opacity="1.00"/>
  <rect x="630" y="230" width="10" height="10" fill="rgb(107,36,27)" fill-opacity="1.00"/>
  <rect x="640" y="230" width="10" height="10" fill="rgb(176,60,44)" fill-opacity="1.00"/>
  <rect x="650" y="230" width="10" height="10" fill="rgb(175,60,44)" fill-opacity="1.00"/>
  <rect x="660" y="230" width="10" height="10" fill="rgb(105,36,26)" fill-opacity="1.00"/>
  <rect x="670" y="230" width="10" height="10" fill="rgb(170,58,42)" fill-opacity="1.00"/>
  <rect x="680" y="230" width="10" height="10" fill="rgb(101,34,25)" fill-opacity="1.00"/>
  <rect x="690" y="230" width="10" height="10" fill="rgb(161,53,40)" fill-opacity="1.00"/>
  <rect x="700" y="230" width="10" height="10" fill="rgb(156,51,38)" fill-opacity="0.79"/>
  <rect x="710" y="230" width="10" height="10" fill="rgb(91,29,22)" fill-opacity="0.53"/>
  <rect x="720" y="230" width="10" height="10" fill="rgb(87,28,21)" fill-opacity="0.25"/>
  <rect x="560" y="240" width="10" height="10" fill="rgb(87,28,21)" fill-opacity="0.25"/>
  <rect x="570" y="240" width="10" height="10" fill="rgb(150,49,36)" fill-opacity="0.49"/>
  <rect x="580" y="240" width="10" height="10" fill="rgb(154,51,38)" fill-opacity="0.71"/>
  <rect x="590" y="240" width="10" height="10" fill="rgb(159,52,39)" fill-opacity="0.90"/>
  <rect x="600" y="240" width="10" height="10" fill="rgb(162,54,40)" fill-opacity="1.00"/>
  <rect x="610" y="240" width="10" height="10" fill="rgb(100,34,25)" fill-opacity="1.00"/>
  <rect x="620" y="240" width="10" height="10" fill="rgb(168,57,42)" fill-opacity="1.00"/>
  <rect x="630" y="240" width="10" height="10" fill="rgb(169,57,42)" fill-opacity="1.00"/>
  <rect x="640" y="240" width="10" height="10" fill="rgb(102,34,25)" fill-opacity="1.00"/>
  <rect x="650" y="240" width="10" height="10" fill="rgb(102,34,25)" fill-opacity="1.00"/>
  <rect x="660" y="240" width="10" height="10" fill="rgb(165,56,41)" fill-opacity="1.00"/>
  <rect x="670" y="240" width="10" height="10" fill="rgb(98,33,24)" fill-opacity="1.00"/>
  <rect x="680" y="240" width="10" height="10" fill="rgb(96,31,23)" fill-opacity="0.90"/>
  <rect x="690" y="240" width="10" height="10" fill="rgb(93,31,23)" fill-opacity="0.71"/>
  <rect x="700" y="240" width="10" height="10" fill="rgb(91,29,22)" fill-opacity="0.49"/>
  <rect x="710" y="240" width="10" height="10" fill="rgb(144,47,34)" fill-opacity="0.25"/>
  <rect x="570" y="250" width="10" height="10" fill="rgb(86,27,21)" fill-opacity="0.19"/>
  <rect x="580" y="250" width="10" height="10" fill="rgb(146,48,35)" fill-opacity="0.39"/>
  <rect x="590" y="250" width="10" height="10" fill="rgb(91,29,22)" fill-opacity="0.56"/>
  <rect x="600" y="250" width="10" height="10" fill="rgb(93,31,23)" fill-opacity="0.71"/>
  <rect x="610" y="250" width="10" height="10" fill="rgb(95,31,23)" fill-opacity="0.82"/>
  <rect x="620" y="250" width="10" height="10" fill="rgb(96,31,23)" fill-opacity="0.90"/>
  <rect x="630" y="250" width="10" height="10" fill="rgb(97,32,23)" fill-opacity="0.94"/>
  <rect x="640" y="250" width="10" height="10" fill="rgb(160,53,39)" fill-opacity="0.94"/>
  <rect x="650" y="250" width="10" height="10" fill="rgb(159,52,39)" fill-opacity="0.90"/>
  <rect x="660" y="250" width="10" height="10" fill="rgb(156,52,39)" fill-opacity="0.82"/>
  <rect x="670" y="250" width="10" height="10" fill="rgb(154,51,38)" fill-opacity="0.71"/>
  <rect x="680" y="250" width="10" height="10" fill="rgb(151,49,36)" fill-opacity="0.56"/>
  <rect x="690" y="250" width="10" height="10" fill="rgb(89,29,21)" fill-opacity="0.39"/>
  <rect x="700" y="250" width="10" height="10" fill="rgb(142,45,34)" fill-opacity="0.19"/>
  <rect x="580" y="260" width="10" height="10" fill="rgb(140,44,33)" fill-opacity="0.06"/>
  <rect x="590" y="260" width="10" height="10" fill="rgb(143,45,34)" fill-opacity="0.22"/>
  <rect x="600" y="260" width="10" height="10" fill="rgb(146,48,35)" fill-opacity="0.35"/>
  <rect x="610" y="260" width="10" height="10" fill="rgb(148,49,35)" fill-opacity="0.46"/>
  <rect x="620" y="260" width="10" height="10" fill="rgb(150,49,36)" fill-opacity="0.53"/>
  <rect x="630" y="260" width="10" height="10" fill="rgb(151,49,36)" fill-opacity="0.56"/>
  <rect x="640" y="260" width="10" height="10" fill="rgb(91,29,22)" fill-opacity="0.56"/>
  <rect x="650" y="260" width="10" height="10" fill="rgb(91,29,22)" fill-opacity="0.53"/>
  <rect x="660" y="260" width="10" height="10" fill="rgb(90,29,21)" fill-opacity="0.46"/>
  <rect x="670" y="260" width="10" height="10" fill="rgb(89,29,21)" fill-opacity="0.35"/>
  <rect x="680" y="260" width="10" height="10" fill="rgb(87,27,21)" fill-opacity="0.22"/>
  <rect x="690" y="260" width="10" height="10" fill="rgb(85,27,20)" fill-opacity="0.06"/>
  <rect x="610" y="270" width="10" height="10" fill="rgb(85,27,20)" fill-opacity="0.09"/>
  <rect x="620" y="270" width="10" height="10" fill="rgb(86,27,20)" fill-opacity="0.15"/>
  <rect x="630" y="270" width="10" height="10" fill="rgb(86,27,21)" fill-opacity="0.19"/>
  <rect x="640" y="270" width="10" height="10" fill="rgb(142,45,34)" fill-opacity="0.19"/>
  <rect x="650" y="270" width="10" height="10" fill="rgb(142,45,33)" fill-opacity="0.15"/>
  <rect x="660" y="270" width="10" height="10" fill="rgb(140,44,33)" fill-opacity="0.09"/>
  <text x="640" y="330" fill="#1B1C1F" font-family="Inter, -apple-system, BlinkMacSystemFont, 'Segoe UI', sans-serif" font-size="42" font-weight="700" letter-spacing="14" text-anchor="middle">HRNIU</text>
  <line x1="600" y1="350" x2="680" y2="350" stroke="#A63A2B" stroke-width="1.5"/>
  <text x="640" y="382" fill="#5A5F68" font-family="Inter, -apple-system, BlinkMacSystemFont, 'Segoe UI', sans-serif" font-size="17" font-weight="400" text-anchor="middle">Systems with clarity and character.</text>
  <text x="640" y="410" fill="#6B6F76" font-family="Inter, -apple-system, BlinkMacSystemFont, 'Segoe UI', sans-serif" font-size="12.5" font-weight="500" letter-spacing="2" text-anchor="middle">Java/Spring backends · explainable agents · browser products</text>
</svg>